{"title":"Ancient Black Ops S01 HDTV x264 TVILLAGE","uid":13232161,"size":3857580033,"categoryP":"video","categoryS":"tv_shows","magnet":"?xt=urn:btih:e04271f71178bd804233d8fe0ca60d1fa7c359b6&amp;dn=Ancient+Black+Ops+S01+HDTV+x264+TVILLAGE&amp;tr=udp%3A%2F%2Ftracker.leechers-paradise.org%3A6969&amp;tr=udp%3A%2F%2Fzer0day.ch%3A1337&amp;tr=udp%3A%2F%2Fopen.demonii.com%3A1337&amp;tr=udp%3A%2F%2Ftracker.coppersurfer.tk%3A6969&amp;tr=udp%3A%2F%2Fexodus.desync.com%3A6969","seeders":0,"leechers":1,"uploader":"jackul16","files":10,"time":1452960643,"description":"From Ancient Greece to the frozen North, rulers have always needed their elite troops. Each episode details the intricate complexity of the elite troops who performed the assassination missions and how they worked.\r\n\r\nAll 10 Episodes from the first season.\r\n\r\n\r\nFile Info (for the first episode - others are similar)\r\n\r\nFormat                                   : MPEG-4\r\nFile size                                : 255 MiB\r\nDuration                                 : 48mn 28s\r\nOverall bit rate mode                    : Variable\r\nOverall bit rate                         : 735 Kbps\r\n\r\nVideo\r\nID                                       : 2\r\nFormat                                   : AVC\r\nFormat/Info                              : Advanced Video Codec\r\nFormat profile                           :   \r\nFormat settings, CABAC                   : Yes\r\nFormat settings, ReFrames                : 5 frames\r\nCodec ID                                 : avc1\r\nCodec ID/Info                            : Advanced Video Coding\r\nDuration                                 : 48mn 28s\r\nBit rate                                 : 603 Kbps\r\nMaximum bit rate                         : 5 729 Kbps\r\nWidth                                    : 720 pixels\r\nHeight                                   : 404 pixels\r\nDisplay aspect ratio                     : 16:9\r\nFrame rate mode                          : Constant\r\nFrame rate                               : 25.000 fps\r\nColor space                              : YUV\r\nChroma subsampling                       : 4:2:0\r\nBit depth                                : 8 bits\r\nScan type                                : Progressive\r\nBits/(Pixel*Frame)                       : 0.083\r\nStream size                              : 209 MiB (82%)\r\n\r\n\r\nAudio\r\nID                                       : 1\r\nFormat                                   : AAC\r\nFormat/Info                              : Advanced Audio Codec\r\nFormat profile                           : LC\r\nCodec ID                                 : 40\r\nDuration                                 : 48mn 28s\r\nSource duration                          : 48mn 29s\r\nBit rate mode                            : Variable\r\nBit rate                                 : 128 Kbps\r\nMaximum bit rate                         : 134 Kbps\r\nChannel(s)                               : 2 channels\r\nChannel positions                        : Front: L R\r\nSampling rate                            : 48.0 KHz\r\nCompression mode                         : Lossy\r\nStream size                              : 44.4 MiB (17%)\r\nSource stream size                       : 44.4 MiB (17%)","torrent":{"xt":"urn:btih:e04271f71178bd804233d8fe0ca60d1fa7c359b6","amp;dn":"Ancient+Black+Ops+S01+HDTV+x264+TVILLAGE","amp;tr":["udp%3A%2F%2Ftracker.leechers-paradise.org%3A6969","udp%3A%2F%2Fzer0day.ch%3A1337","udp%3A%2F%2Fopen.demonii.com%3A1337","udp%3A%2F%2Ftracker.coppersurfer.tk%3A6969","udp%3A%2F%2Fexodus.desync.com%3A6969"],"infoHash":"e04271f71178bd804233d8fe0ca60d1fa7c359b6","infoHashBuffer":{"type":"Buffer","data":[224,66,113,247,17,120,189,128,66,51,216,254,12,166,13,31,167,195,89,182]},"announce":[],"urlList":[]}}